<svg xmlns="http://www.w3.org/2000/svg" width="1080" height="1080" viewBox="0 0 1080 1080"><defs>
<radialGradient id="bg" cx=".3" cy=".2" r=".95"><stop offset="0" stop-color="#ff4d7a"/><stop offset=".6" stop-color="#f0204a"/><stop offset="1" stop-color="#b80f35"/></radialGradient>
<linearGradient id="beam" x1="0" y1="0" x2="0" y2="1"><stop offset="0" stop-color="#fff3b8" stop-opacity=".95"/><stop offset="1" stop-color="#fff3b8" stop-opacity=".15"/></linearGradient>
<linearGradient id="body" x1="0" y1="0" x2="1" y2="0"><stop offset="0" stop-color="#2b2a30"/><stop offset=".35" stop-color="#16151a"/><stop offset="1" stop-color="#050506"/></linearGradient>
<filter id="soft"><feGaussianBlur stdDeviation="10"/></filter>
<filter id="drop" x="-20%" y="-20%" width="140%" height="150%"><feDropShadow dx="0" dy="16" stdDeviation="18" flood-color="#5a0018" flood-opacity=".5"/></filter></defs>
<rect width="1080" height="1080" fill="url(#bg)"/>
<polygon points="365,735 715,735 930,1080 150,1080" fill="url(#beam)" filter="url(#soft)"/>
<ellipse cx="540" cy="1010" rx="330" ry="50" fill="#fff3b8" opacity=".55" filter="url(#soft)"/>
<path d="M860 204 C865.52 244.48 865.52 244.48 906 250 C865.52 255.52 865.52 255.52 860 296 C854.48 255.52 854.48 255.52 814 250 C854.48 244.48 854.48 244.48 860 204Z" fill="#fff" opacity="1"/><path d="M205 300 C208.6 326.4 208.6 326.4 235 330 C208.6 333.6 208.6 333.6 205 360 C201.4 333.6 201.4 333.6 175 330 C201.4 326.4 201.4 326.4 205 300Z" fill="#fff" opacity="0.85"/><path d="M905 578 C907.64 597.36 907.64 597.36 927 600 C907.64 602.64 907.64 602.64 905 622 C902.36 602.64 902.36 602.64 883 600 C902.36 597.36 902.36 597.36 905 578Z" fill="#fff" opacity="0.7"/>
<g filter="url(#drop)">
<path d="M290 540 Q290 240 540 240 Q790 240 790 540" fill="none" stroke="#0d0d10" stroke-width="46" stroke-linecap="round"/>
<circle cx="290" cy="540" r="40" fill="#0d0d10"/><circle cx="790" cy="540" r="40" fill="#0d0d10"/>
<circle cx="290" cy="540" r="14" fill="#3a3940"/><circle cx="790" cy="540" r="14" fill="#3a3940"/>
<rect x="505" y="168" width="70" height="92" rx="20" fill="#0d0d10"/>
<path d="M365 330 L715 330 Q758 330 768 372 L822 690 Q828 726 792 726 L288 726 Q252 726 258 690 L312 372 Q322 330 365 330Z" fill="url(#body)"/>
<path d="M352 352 L410 352 L360 700 L300 700Z" fill="#fff" opacity=".07"/>
<rect x="250" y="688" width="580" height="70" rx="35" fill="#fff3b8"/>
<rect x="250" y="688" width="580" height="22" rx="11" fill="#fff" opacity=".7"/>
</g>
<path d="M398 432 Q445 410 492 428" fill="none" stroke="#fff" stroke-width="16" stroke-linecap="round"/>
<ellipse cx="447" cy="505" rx="54" ry="58" fill="#fff"/><circle cx="462" cy="512" r="29" fill="#0d0d10"/><circle cx="473" cy="499" r="10" fill="#fff"/>
<path d="M582 512 Q630 470 678 512" fill="none" stroke="#fff" stroke-width="24" stroke-linecap="round"/>
<path d="M590 440 L668 428" fill="none" stroke="#fff" stroke-width="16" stroke-linecap="round"/>
<path d="M448 604 Q545 676 642 604" fill="#ff2e63" stroke="#fff" stroke-width="22" stroke-linecap="round" stroke-linejoin="round"/>
<circle cx="380" cy="592" r="30" fill="#ff2e63" opacity=".75"/><circle cx="702" cy="592" r="30" fill="#ff2e63" opacity=".75"/>
</svg>